{"glyphs":{" ":{"ha":694,"x_min":0,"x_max":0,"o":""},"E":{"ha":942,"x_min":111,"x_max":919,"o":"m 919 175 q 907 233 919 210 q 876 270 894 256 q 835 294 857 285 q 793 312 813 303 q 761 332 774 321 q 749 361 749 343 q 767 399 749 388 q 807 426 785 411 q 848 467 829 440 q 868 550 867 493 q 858 601 868 582 q 835 634 847 621 q 813 660 824 647 q 803 692 803 672 q 817 723 803 711 q 850 751 832 735 q 883 794 868 768 q 899 867 899 819 q 851 989 900 946 q 732 1035 803 1032 q 649 1036 700 1036 q 543 1036 599 1036 q 435 1035 488 1036 q 349 1035 383 1035 q 261 1017 304 1033 q 185 973 218 1001 q 131 904 151 944 q 111 817 111 864 q 111 682 111 760 q 111 522 111 604 q 111 363 111 442 q 111 225 111 285 q 130 140 111 179 q 180 70 149 100 q 252 22 211 40 q 339 3 293 4 q 427 1 376 1 q 532 1 478 0 q 638 2 586 1 q 729 3 690 3 q 803 16 768 4 q 863 49 838 28 q 904 103 889 71 q 919 175 919 135 z "},"F":{"ha":840,"x_min":110,"x_max":869,"o":"m 869 868 q 856 938 869 907 q 817 989 842 968 q 761 1021 793 1010 q 693 1033 729 1032 q 615 1035 660 1035 q 525 1035 572 1035 q 431 1034 478 1035 q 343 1033 383 1033 q 255 1016 297 1033 q 181 969 213 999 q 129 897 149 939 q 110 807 110 856 l 110 203 q 152 51 110 103 q 285 1 194 -1 q 405 50 364 3 q 446 206 446 97 q 465 283 446 253 q 515 330 485 313 q 579 353 544 347 q 646 360 614 360 q 770 406 722 360 q 818 536 818 453 q 807 596 818 574 q 783 633 796 618 q 760 660 771 647 q 749 692 749 672 q 767 729 749 717 q 809 757 786 742 q 851 797 832 772 q 869 868 869 821 z "},"G":{"ha":1100,"x_min":63,"x_max":1056,"o":"m 1054 244 q 1055 331 1054 285 q 1054 425 1056 376 q 1046 490 1054 464 q 1028 536 1038 517 q 1009 571 1018 556 q 997 603 1000 586 q 1004 643 993 624 q 1024 688 1015 663 q 1029 751 1032 714 q 997 846 1026 788 q 931 931 974 892 q 832 1000 888 971 q 711 1045 776 1029 q 578 1061 646 1061 q 365 1023 461 1061 q 202 913 269 985 q 99 740 135 842 q 64 513 63 639 q 94 308 64 406 q 187 138 125 211 q 341 19 249 64 q 557 -25 433 -25 q 621 -21 594 -25 q 669 -10 647 -17 q 710 1 690 -4 q 756 8 731 6 q 798 7 781 10 q 831 1 815 4 q 865 -4 847 -3 q 910 0 883 -6 q 979 36 951 8 q 1024 100 1007 64 q 1047 175 1040 136 q 1054 244 1054 214 m 635 683 q 610 646 633 660 q 563 633 588 632 q 516 650 536 635 q 497 689 496 665 q 521 729 499 715 q 569 742 543 743 q 615 725 593 740 q 635 683 636 710 z "},"H":{"ha":1006,"x_min":58,"x_max":1001,"o":"m 1001 219 l 1001 818 q 990 899 1001 860 q 956 967 979 938 q 897 1015 932 997 q 814 1033 861 1033 q 731 1016 767 1033 q 673 969 696 999 q 638 901 650 940 q 626 821 626 863 q 601 747 626 776 q 524 718 576 718 q 481 729 499 718 q 453 757 464 740 q 439 792 443 774 q 435 826 435 811 q 422 907 435 869 q 385 973 410 944 q 326 1017 361 1001 q 243 1033 290 1033 q 161 1015 196 1032 q 103 970 126 999 q 69 905 81 942 q 58 826 58 868 q 58 678 58 763 q 58 508 58 594 q 58 343 58 422 q 58 213 58 265 q 110 52 58 106 q 257 3 161 -1 q 338 22 304 4 q 392 69 371 40 q 424 136 414 99 q 435 215 435 174 q 439 274 435 244 q 453 326 443 303 q 480 363 463 349 q 525 378 497 378 q 574 363 554 378 q 605 322 593 347 q 622 268 617 297 q 626 213 626 239 q 679 49 626 101 q 831 3 732 -4 q 908 26 876 7 q 961 74 940 44 q 992 140 982 103 q 1001 219 1001 178 z "},"I":{"ha":414,"x_min":-1,"x_max":442,"o":"m 442 211 l 442 828 q 428 903 442 867 q 386 969 414 940 q 318 1015 358 997 q 226 1033 278 1032 q 130 1017 172 1033 q 59 974 88 1001 q 15 909 31 946 q 0 831 0 872 q -1 691 0 769 q -1 529 -1 613 q -1 363 -1 446 q 0 207 0 279 q 15 127 0 165 q 60 60 31 89 q 132 15 89 32 q 231 1 175 -1 q 319 21 281 3 q 385 67 358 39 q 427 133 413 96 q 442 211 442 171 z "},"J":{"ha":775,"x_min":29,"x_max":715,"o":"m 715 324 l 715 839 q 673 977 715 922 q 556 1033 631 1032 q 431 983 475 1035 q 388 843 388 931 q 388 687 386 758 q 388 563 389 615 q 380 479 386 511 q 357 442 374 447 q 324 447 336 435 q 297 476 313 460 q 257 508 282 493 q 185 521 232 522 q 72 468 111 518 q 31 342 32 418 q 111 67 29 160 q 385 -24 193 -25 q 533 3 471 -24 q 636 78 596 31 q 696 188 676 125 q 715 324 715 251 z "},"K":{"ha":994,"x_min":131,"x_max":985,"o":"m 944 285 q 851 418 883 369 q 803 497 818 467 q 785 545 788 526 q 782 588 782 564 q 788 623 782 607 q 807 656 794 639 q 840 693 819 672 q 890 743 861 714 q 931 813 919 772 q 939 894 943 854 q 915 970 935 935 q 860 1025 894 1006 q 794 1040 828 1042 q 726 1022 760 1038 q 660 981 693 1007 q 599 922 628 954 q 578 904 586 914 q 561 886 569 894 q 542 872 553 878 q 517 868 532 867 q 474 883 490 871 q 444 914 457 896 q 422 953 432 932 q 397 992 411 974 q 361 1022 382 1010 q 307 1036 340 1035 q 226 1023 260 1038 q 172 981 193 1008 q 142 916 151 953 q 132 838 132 879 q 131 689 131 774 q 131 514 131 604 q 131 338 131 425 q 132 183 132 251 q 181 50 132 100 q 314 0 229 0 q 385 13 357 0 q 433 46 414 26 q 463 88 451 65 q 485 130 475 111 q 506 161 494 149 q 533 172 517 174 q 562 169 550 171 q 585 160 574 167 q 607 143 596 154 q 633 113 618 132 q 687 52 660 79 q 744 10 714 25 q 807 -8 774 -6 q 879 7 840 -10 q 938 51 913 21 q 974 120 963 82 q 979 201 985 158 q 944 285 974 244 z "},"L":{"ha":818,"x_min":110,"x_max":821,"o":"m 819 176 q 803 245 819 215 q 762 296 788 275 q 703 328 736 317 q 633 339 669 339 q 548 347 582 339 q 492 374 514 354 q 460 428 471 393 q 444 519 449 463 q 440 656 440 575 q 440 847 440 736 q 394 986 440 935 q 267 1033 347 1038 q 151 977 192 1028 q 110 847 110 926 l 110 236 q 126 147 110 189 q 171 72 143 104 q 237 22 199 40 q 318 1 275 3 q 479 0 396 0 q 638 1 563 0 q 708 14 675 1 q 767 49 742 26 q 806 104 792 72 q 819 176 821 136 z "},"M":{"ha":1183,"x_min":54,"x_max":1181,"o":"m 1181 194 q 1176 492 1181 339 q 1168 778 1172 646 q 1148 888 1167 840 q 1101 967 1129 935 q 1040 1015 1074 999 q 975 1033 1007 1031 q 861 1022 904 1038 q 790 977 818 1006 q 741 910 761 949 q 697 832 721 872 q 663 785 678 800 q 619 769 649 769 q 572 788 588 769 q 539 840 556 806 q 499 917 518 882 q 454 978 481 951 q 388 1019 428 1004 q 285 1033 349 1033 q 199 1015 238 1033 q 131 965 160 997 q 85 888 101 933 q 67 789 68 843 q 62 640 64 719 q 58 482 60 561 q 56 328 57 403 q 54 194 54 254 q 67 121 54 156 q 106 60 81 86 q 168 19 132 35 q 250 1 204 3 q 324 16 296 0 q 369 50 351 32 q 399 81 388 68 q 426 86 411 93 q 456 65 442 79 q 490 36 469 50 q 540 12 510 22 q 621 1 571 1 q 693 13 667 1 q 738 40 719 25 q 770 67 756 54 q 806 86 785 81 q 828 76 817 89 q 860 46 839 63 q 915 15 881 29 q 1008 1 950 1 q 1085 17 1053 1 q 1139 60 1118 33 q 1170 121 1160 86 q 1181 194 1181 156 z "},"N":{"ha":1006,"x_min":56,"x_max":1004,"o":"m 1004 224 l 1004 838 q 993 913 1004 876 q 959 975 982 949 q 902 1017 936 1001 q 822 1033 868 1033 q 742 1018 776 1033 q 684 976 707 1003 q 650 912 661 949 q 640 833 639 875 q 633 801 640 817 q 606 788 625 786 q 556 815 588 789 q 476 907 524 840 q 369 1011 426 978 q 238 1033 311 1044 q 167 1013 200 1028 q 108 972 133 997 q 69 909 83 946 q 56 822 56 872 l 56 190 q 101 55 56 110 q 238 3 146 0 q 315 19 281 4 q 372 60 349 35 q 406 119 394 85 q 418 190 418 153 q 426 227 418 207 q 452 251 433 247 q 503 231 471 254 q 585 139 535 208 q 694 33 635 68 q 818 3 754 -1 q 951 64 899 8 q 1004 224 1004 119 z "},"O":{"ha":1100,"x_min":63,"x_max":1086,"o":"m 1085 525 q 1053 731 1083 633 q 963 901 1024 828 q 806 1019 901 975 q 578 1063 711 1063 q 343 1019 440 1063 q 184 902 246 976 q 94 730 122 828 q 64 524 65 632 q 89 315 63 414 q 176 140 115 215 q 335 19 236 64 q 576 -26 433 -26 q 810 18 713 -28 q 969 140 907 64 q 1058 317 1031 217 q 1085 525 1086 417 m 660 521 q 658 463 660 492 q 647 412 656 435 q 622 374 639 389 q 575 360 604 360 q 529 374 546 360 q 503 413 513 389 q 491 465 493 436 q 489 522 489 493 q 492 576 489 550 q 505 624 496 603 q 531 658 514 644 q 578 671 549 671 q 620 658 604 671 q 645 623 636 644 q 657 574 654 601 q 660 521 660 547 z "},"P":{"ha":918,"x_min":110,"x_max":929,"o":"m 929 664 q 901 833 929 763 q 825 947 874 903 q 711 1013 776 992 q 572 1033 646 1033 l 343 1033 q 255 1017 297 1033 q 181 971 213 1000 q 129 901 149 942 q 110 814 110 861 l 110 186 q 123 111 110 146 q 160 52 136 76 q 217 14 183 28 q 290 1 250 0 q 413 53 374 4 q 451 194 451 103 q 493 278 451 257 q 597 299 535 299 q 710 322 651 299 q 817 392 769 346 q 897 507 865 439 q 929 664 929 575 m 588 668 q 529 600 588 604 q 467 613 490 597 q 443 665 443 629 q 467 714 443 697 q 526 728 490 731 q 571 708 554 725 q 588 668 588 692 z "},"Q":{"ha":1100,"x_min":63,"x_max":1086,"o":"m 1085 517 q 1056 725 1086 626 q 963 899 1025 824 q 804 1017 900 974 q 578 1061 708 1061 q 339 1017 436 1061 q 181 897 242 972 q 92 722 119 822 q 64 511 64 622 q 90 301 63 401 q 178 124 117 200 q 338 2 239 47 q 578 -43 436 -43 q 653 -39 625 -43 q 701 -30 682 -35 q 738 -21 721 -25 q 778 -18 754 -17 q 833 -28 806 -19 q 889 -41 861 -37 q 947 -35 917 -44 q 1013 11 978 -26 q 1043 65 1039 39 q 1043 115 1047 90 q 1032 165 1039 140 q 1029 218 1025 190 q 1041 260 1032 242 q 1060 308 1050 279 q 1077 386 1069 338 q 1085 517 1085 435 m 686 521 q 678 474 686 488 q 657 452 669 460 q 629 436 644 444 q 597 407 614 428 q 589 389 592 399 q 582 369 586 379 q 569 353 578 360 q 543 343 561 346 q 501 355 518 339 q 474 398 485 371 q 460 458 464 425 q 456 521 456 490 q 460 586 456 554 q 478 644 464 618 q 515 687 492 671 q 575 703 538 703 q 632 688 610 703 q 666 647 654 672 q 682 590 678 622 q 686 521 686 557 z "},"R":{"ha":1018,"x_min":113,"x_max":988,"o":"m 986 700 q 965 826 986 767 q 901 932 944 886 q 789 1005 857 978 q 628 1032 721 1032 l 351 1032 q 263 1016 306 1032 q 186 971 219 1000 q 133 901 153 942 q 113 814 113 861 q 113 674 113 753 q 113 513 113 596 q 113 347 113 429 q 113 200 113 267 q 159 50 113 104 q 290 -1 206 -4 q 457 175 457 3 q 476 224 457 204 q 522 246 496 243 q 577 235 549 249 q 622 183 606 221 q 744 12 681 57 q 883 6 808 -33 q 940 38 915 22 q 976 87 965 54 q 982 176 988 119 q 947 328 976 232 q 930 389 936 365 q 922 428 924 413 q 921 456 919 443 q 925 485 922 468 q 941 533 931 513 q 962 574 951 553 q 979 625 972 596 q 986 700 986 654 m 590 681 q 570 651 590 660 q 529 643 550 642 q 481 682 481 646 q 538 718 481 718 q 574 708 558 718 q 590 681 590 699 z "},"S":{"ha":900,"x_min":18,"x_max":933,"o":"m 932 351 q 916 435 931 403 q 883 491 901 468 q 846 532 864 514 q 821 572 828 550 q 829 617 813 597 q 863 665 846 636 q 887 737 881 693 q 865 856 893 781 q 801 956 842 915 q 706 1020 760 996 q 590 1054 653 1044 q 463 1064 528 1064 q 269 1037 351 1064 q 130 962 186 1010 q 46 847 74 914 q 18 699 18 779 q 33 605 18 639 q 67 550 49 571 q 102 516 86 529 q 119 486 118 503 q 112 447 122 465 q 88 407 101 428 q 60 361 74 386 q 41 304 46 336 q 44 231 36 272 q 83 136 53 189 q 149 56 110 88 q 237 6 188 25 q 347 -19 286 -12 q 479 -25 407 -26 q 669 5 585 -24 q 813 83 754 33 q 903 201 872 133 q 932 351 933 269 m 528 351 q 506 319 526 329 q 463 311 486 308 q 422 327 439 314 q 406 361 404 340 q 428 395 407 385 q 475 403 450 406 q 513 388 496 400 q 528 351 529 375 z "},"T":{"ha":857,"x_min":-28,"x_max":935,"o":"m 933 875 q 921 942 932 913 q 886 991 910 971 q 823 1022 863 1011 q 726 1033 783 1033 l 176 1033 q 17 988 63 1033 q -28 865 -28 942 q -14 788 -28 819 q 25 738 0 757 q 83 711 50 719 q 153 703 115 703 q 238 663 211 703 q 264 567 264 624 l 264 189 q 272 111 264 147 q 303 49 281 75 q 367 10 326 22 q 472 1 407 -3 q 601 53 557 8 q 644 194 644 99 l 644 575 q 676 669 644 635 q 760 703 708 703 q 830 712 797 703 q 886 741 863 721 q 922 794 910 761 q 933 875 935 826 z "},"U":{"ha":1018,"x_min":104,"x_max":965,"o":"m 965 390 q 965 489 965 433 q 965 603 965 544 q 965 721 965 663 q 965 826 965 779 q 953 903 965 867 q 919 968 942 940 q 863 1013 896 996 q 789 1033 829 1031 q 713 1020 746 1035 q 656 977 679 1006 q 619 910 632 949 q 606 828 606 872 q 606 733 606 782 q 606 640 606 685 q 606 557 606 596 q 606 492 606 518 q 590 421 606 451 q 535 390 574 390 q 478 423 494 390 q 463 497 463 456 l 463 833 q 449 913 463 875 q 412 978 436 950 q 353 1020 388 1006 q 275 1033 318 1035 q 203 1015 235 1031 q 150 972 172 999 q 116 909 128 944 q 104 833 104 874 l 104 393 q 128 228 106 304 q 201 95 150 151 q 333 6 251 39 q 535 -26 415 -26 q 733 6 651 -26 q 867 94 815 38 q 942 226 918 150 q 965 390 965 303 z "},"V":{"ha":942,"x_min":21,"x_max":969,"o":"m 954 778 q 967 859 969 817 q 946 938 964 901 q 896 999 928 974 q 822 1029 864 1025 q 733 1028 769 1035 q 672 1005 697 1022 q 629 959 646 988 q 600 890 613 931 q 583 843 593 869 q 560 794 574 817 q 531 756 547 771 q 497 740 515 740 q 465 755 481 740 q 434 792 449 769 q 408 842 419 815 q 388 892 396 868 q 357 963 372 932 q 317 1011 342 993 q 255 1034 293 1029 q 157 1028 217 1039 q 83 993 113 1019 q 38 930 53 967 q 22 851 22 893 q 35 772 21 810 q 88 636 57 714 q 152 477 119 558 q 215 317 185 396 q 269 181 246 239 q 303 109 285 142 q 349 53 322 76 q 410 16 375 29 q 492 3 444 3 q 631 50 581 3 q 714 174 682 97 q 772 319 739 238 q 838 485 804 401 q 902 647 871 569 q 954 778 933 724 z "},"W":{"ha":1350,"x_min":7,"x_max":1390,"o":"m 1375 765 q 1389 842 1388 803 q 1379 916 1390 881 q 1343 979 1368 951 q 1279 1024 1318 1007 q 1173 1043 1219 1047 q 1092 1016 1126 1039 q 1033 956 1057 993 q 993 878 1008 919 q 972 847 986 858 q 942 835 958 836 q 911 844 926 835 q 888 875 896 854 q 855 944 871 914 q 818 993 839 974 q 769 1022 797 1013 q 703 1032 742 1032 q 625 1024 657 1032 q 571 998 593 1015 q 533 951 549 981 q 504 881 518 922 q 488 854 499 864 q 463 844 476 844 q 435 855 450 844 q 408 890 421 865 q 363 962 388 929 q 308 1014 339 994 q 236 1038 276 1033 q 143 1028 196 1043 q 67 986 97 1014 q 23 924 38 958 q 8 851 8 890 q 19 775 7 813 q 69 632 42 711 q 126 472 97 553 q 182 316 154 392 q 231 183 210 240 q 264 111 244 144 q 310 53 283 78 q 373 15 338 29 q 456 1 408 1 q 532 13 503 3 q 580 41 561 22 q 613 88 599 60 q 646 154 626 117 q 665 173 651 165 q 693 181 678 181 q 723 176 708 182 q 747 154 738 169 q 785 86 769 115 q 822 38 801 57 q 873 8 843 18 q 953 1 903 -1 q 1092 54 1042 6 q 1168 174 1143 103 q 1219 317 1190 238 q 1276 476 1247 396 q 1331 633 1304 557 q 1375 765 1357 708 z "},"X":{"ha":929,"x_min":82,"x_max":894,"o":"m 851 301 q 786 404 808 367 q 754 464 764 442 q 744 500 744 486 q 743 532 743 514 q 743 564 743 550 q 751 598 743 578 q 778 651 758 618 q 838 743 797 685 q 870 814 860 775 q 878 891 881 853 q 860 962 875 929 q 817 1014 844 994 q 735 1053 771 1047 q 669 1045 699 1058 q 613 1004 639 1032 q 561 942 586 976 q 538 922 553 931 q 504 910 522 913 q 469 915 486 908 q 440 943 453 922 q 383 1014 415 985 q 313 1053 350 1043 q 235 1053 275 1064 q 158 1004 196 1042 q 119 948 133 979 q 102 883 106 917 q 107 817 99 850 q 136 754 115 783 q 197 661 175 697 q 228 601 218 625 q 240 561 238 578 q 242 526 242 544 q 240 494 242 508 q 226 454 238 479 q 188 388 214 429 q 115 275 163 346 q 89 207 96 244 q 88 133 82 169 q 111 65 93 97 q 158 14 129 33 q 231 -17 199 -12 q 293 -8 264 -21 q 350 30 322 4 q 408 90 378 56 q 441 113 421 104 q 483 122 461 121 q 524 115 504 122 q 556 92 543 107 q 615 26 585 54 q 677 -15 644 -3 q 747 -20 710 -28 q 829 22 785 -12 q 875 80 860 46 q 892 152 890 114 q 884 229 894 190 q 851 301 874 268 z "},"Y":{"ha":929,"x_min":38,"x_max":954,"o":"m 914 743 q 944 815 935 776 q 951 890 954 853 q 929 960 947 928 q 878 1014 911 993 q 793 1047 832 1043 q 720 1037 754 1051 q 656 992 686 1022 q 596 924 625 963 q 553 891 579 903 q 500 878 528 879 q 447 888 472 878 q 407 918 422 897 q 342 993 376 961 q 271 1039 308 1025 q 194 1047 233 1053 q 114 1011 156 1042 q 64 957 82 988 q 42 891 46 926 q 47 819 38 856 q 76 749 56 782 q 108 701 89 729 q 148 640 126 672 q 191 576 169 608 q 229 518 213 544 q 288 413 265 461 q 314 306 311 364 q 315 244 315 275 q 314 193 314 213 q 359 53 314 106 q 499 1 404 1 q 639 56 590 1 q 686 193 688 111 q 687 249 686 219 q 686 307 688 278 q 709 416 685 368 q 760 506 733 464 q 846 638 804 575 q 914 743 888 701 z "},"Z":{"ha":857,"x_min":38,"x_max":867,"o":"m 867 175 q 816 303 867 254 q 674 351 765 351 q 625 373 643 351 q 611 435 607 394 q 649 532 615 475 q 754 658 682 589 q 796 710 776 679 q 829 772 815 740 q 851 833 843 803 q 857 882 858 863 q 806 995 853 957 q 685 1033 760 1033 l 218 1033 q 98 993 143 1033 q 50 878 53 953 q 94 740 46 794 q 231 682 143 685 q 274 665 258 682 q 285 614 289 647 q 253 532 281 581 q 167 421 225 483 q 119 362 143 396 q 77 292 96 328 q 48 222 58 257 q 39 160 38 188 q 60 88 42 118 q 108 38 79 57 q 175 10 138 19 q 253 1 213 1 q 351 1 299 1 q 458 0 404 0 q 566 1 513 0 q 665 1 619 1 q 742 13 706 1 q 807 47 779 25 q 851 102 835 69 q 867 175 867 135 z "},"a":{"ha":740,"x_min":26,"x_max":764,"o":"m 760 111 q 761 149 764 129 q 753 189 758 168 q 742 232 747 210 q 738 278 738 254 q 737 340 738 313 q 736 392 736 367 q 736 443 736 417 q 736 504 736 469 q 707 645 735 592 q 633 729 679 699 q 526 772 586 760 q 401 786 465 783 q 288 772 343 788 q 186 729 232 757 q 108 662 140 701 q 65 576 76 622 q 63 525 57 544 q 76 489 68 506 q 89 453 85 472 q 83 403 93 435 q 68 367 76 382 q 52 336 60 351 q 38 302 44 321 q 31 254 32 283 q 49 131 26 182 q 112 46 71 79 q 207 -3 153 13 q 319 -18 261 -18 q 375 -14 349 -18 q 426 -6 401 -10 q 472 0 450 -1 q 515 -4 494 1 q 588 -12 549 -14 q 663 2 628 -11 q 725 42 699 15 q 760 111 751 69 m 436 265 q 427 238 439 244 q 400 228 415 231 q 369 228 385 225 q 350 246 353 232 q 389 288 346 274 q 417 290 401 293 q 436 265 433 288 z "},"b":{"ha":833,"x_min":92,"x_max":854,"o":"m 854 418 q 828 599 854 519 q 758 733 803 679 q 650 814 713 788 q 513 835 588 840 q 448 853 471 832 q 424 900 425 875 q 378 1001 421 968 q 258 1035 335 1035 q 136 990 181 1035 q 92 838 92 946 l 92 186 q 102 95 92 129 q 133 41 113 61 q 181 13 153 21 q 246 -1 210 4 q 278 -4 264 -4 q 306 -3 293 -4 q 333 0 319 -1 q 364 1 347 1 q 397 -1 383 1 q 426 -7 410 -4 q 463 -12 442 -10 q 519 -14 485 -14 q 665 23 603 -14 q 769 120 728 60 q 833 258 811 181 q 854 418 854 336 m 510 426 q 501 389 510 404 q 472 374 492 374 q 440 390 449 374 q 431 426 431 406 q 440 466 431 451 q 472 481 449 481 q 501 464 493 481 q 510 426 510 447 z "},"c":{"ha":704,"x_min":51,"x_max":767,"o":"m 750 569 q 626 726 715 667 q 417 786 538 786 q 249 751 318 785 q 135 663 179 718 q 72 534 92 607 q 51 381 51 461 q 148 80 53 178 q 413 -18 243 -18 q 615 30 535 -18 q 736 182 694 78 q 754 253 753 224 q 751 307 756 283 q 740 351 746 331 q 735 392 733 371 q 744 420 736 407 q 760 451 753 433 q 767 496 767 469 q 750 569 767 524 m 461 390 q 451 351 461 367 q 421 336 440 336 q 391 351 400 336 q 382 390 382 367 q 390 428 382 414 q 421 442 399 442 q 451 426 442 442 q 461 390 461 410 z "},"d":{"ha":857,"x_min":50,"x_max":818,"o":"m 818 211 l 818 826 q 806 931 818 890 q 771 994 793 971 q 716 1025 749 1017 q 644 1033 683 1033 q 527 1003 567 1031 q 481 906 488 975 q 450 855 478 874 q 397 836 422 836 q 241 801 307 836 q 133 706 175 765 q 70 571 90 647 q 51 413 50 494 q 76 234 51 314 q 146 98 101 154 q 253 12 190 42 q 390 -18 315 -18 q 438 -16 419 -18 q 474 -10 457 -14 q 509 -3 490 -7 q 556 3 528 0 q 584 3 572 4 q 607 -1 596 1 q 630 -5 618 -3 q 658 -6 642 -7 q 721 5 692 -4 q 772 37 750 14 q 806 101 793 60 q 818 211 818 143 m 479 426 q 469 389 479 404 q 438 374 458 374 q 408 390 417 374 q 399 426 399 406 q 407 466 399 451 q 438 481 415 481 q 470 464 461 481 q 479 426 479 447 z "},"e":{"ha":744,"x_min":8,"x_max":740,"o":"m 738 488 q 703 610 732 554 q 628 705 675 665 q 518 765 581 744 q 382 786 456 786 q 226 757 294 785 q 109 678 157 729 q 36 556 61 626 q 10 397 11 485 q 103 94 8 203 q 388 -18 197 -15 q 485 -10 438 -19 q 572 19 532 0 q 642 69 611 39 q 690 138 672 99 q 708 201 706 171 q 708 255 711 231 q 702 299 706 279 q 701 335 699 319 q 712 362 704 350 q 726 388 719 374 q 736 426 732 403 q 738 488 740 449 m 421 285 q 410 265 421 272 q 388 256 400 257 q 360 263 372 254 q 347 285 347 271 q 360 309 347 300 q 388 317 372 318 q 410 308 400 315 q 421 285 421 300 z "},"f":{"ha":426,"x_min":-35,"x_max":494,"o":"m 494 919 q 456 1050 494 1015 q 333 1085 417 1085 q 194 1072 250 1085 q 106 1028 139 1058 q 58 948 72 997 q 43 828 43 899 q 31 790 43 803 q 3 764 18 776 q -23 734 -11 751 q -35 683 -35 717 q -22 635 -35 654 q 6 597 -10 615 q 35 562 22 579 q 47 519 47 544 l 47 176 q 93 42 47 88 q 218 1 139 -3 q 333 48 293 6 q 374 178 374 90 l 374 504 q 390 557 374 539 q 425 590 406 575 q 460 626 444 606 q 476 685 476 646 q 473 721 476 707 q 466 745 469 735 q 459 765 463 756 q 456 788 456 774 q 460 814 454 804 q 474 835 467 824 q 488 865 482 846 q 494 919 494 883 z "},"g":{"ha":847,"x_min":58,"x_max":819,"o":"m 819 133 l 819 556 q 804 655 819 614 q 765 722 789 696 q 712 763 740 749 q 657 779 683 776 q 626 781 639 781 q 603 781 614 781 q 583 780 593 781 q 558 779 572 779 q 515 781 532 779 q 483 783 499 782 q 448 786 467 785 q 400 788 429 788 q 256 754 319 788 q 149 663 193 721 q 82 528 106 606 q 58 363 58 450 q 69 281 58 319 q 92 207 79 243 q 116 136 106 171 q 126 64 126 101 q 115 18 126 36 q 95 -21 104 0 q 86 -71 86 -42 q 108 -153 86 -101 q 156 -214 122 -185 q 233 -265 189 -243 q 330 -299 278 -286 q 435 -311 382 -311 q 597 -291 531 -311 q 706 -237 664 -271 q 772 -160 749 -204 q 806 -67 794 -117 q 818 34 817 -18 q 819 133 819 86 m 490 365 q 481 328 490 343 q 449 314 471 314 q 419 329 429 314 q 410 365 410 344 q 419 405 410 390 q 449 419 428 419 q 481 403 472 419 q 490 365 490 388 z "},"h":{"ha":813,"x_min":97,"x_max":799,"o":"m 797 218 q 797 279 797 244 q 797 351 797 314 q 797 426 797 389 q 797 499 797 465 q 776 661 796 596 q 718 765 756 726 q 626 819 681 803 q 501 836 572 836 q 472 842 486 836 q 447 859 458 849 q 428 882 436 869 q 421 907 421 894 q 373 1007 418 974 q 253 1033 328 1040 q 186 1019 215 1029 q 137 985 157 1008 q 107 926 117 963 q 97 833 97 889 l 97 200 q 142 49 97 96 q 265 1 186 1 q 346 18 321 1 q 384 55 371 35 q 408 92 397 75 q 446 108 418 108 q 472 101 463 108 q 490 81 482 93 q 508 55 499 68 q 533 29 517 42 q 574 9 549 17 q 640 1 600 1 q 706 11 676 1 q 756 46 736 21 q 788 113 776 71 q 797 218 799 154 z "},"i":{"ha":424,"x_min":-14,"x_max":471,"o":"m 447 190 l 447 606 q 440 637 447 622 q 427 665 433 651 q 418 691 421 679 q 424 711 415 703 q 458 768 444 733 q 471 840 471 803 q 457 915 471 878 q 411 983 443 953 q 339 1029 381 1013 q 251 1050 297 1046 q 161 1044 206 1054 q 79 1011 117 1035 q 17 947 39 986 q -9 867 -4 908 q -3 788 -14 826 q 33 724 8 750 q 42 701 43 713 q 37 674 42 689 q 26 638 32 658 q 19 592 19 618 l 19 188 q 77 47 19 90 q 242 1 135 3 q 332 16 293 1 q 397 57 371 31 q 435 117 422 83 q 447 190 447 151 z "},"j":{"ha":438,"x_min":-99,"x_max":442,"o":"m 436 61 l 436 600 q 433 633 436 617 q 425 665 429 650 q 417 691 421 679 q 414 710 414 703 q 423 747 414 721 q 437 809 432 774 q 435 886 442 844 q 400 971 429 928 q 336 1025 376 1006 q 249 1049 296 1044 q 157 1043 203 1054 q 76 1006 111 1032 q 13 921 26 965 q 5 836 0 876 q 22 766 10 796 q 33 725 33 736 q 29 701 33 713 q 20 674 25 689 q 12 642 15 660 q 8 600 8 624 q 9 480 8 546 q 10 346 10 414 q 10 210 10 278 q 8 88 10 143 q -9 25 8 53 q -47 -28 -26 -3 q -83 -78 -67 -53 q -97 -132 -99 -103 q -67 -212 -96 -178 q 3 -265 -39 -246 q 97 -287 46 -283 q 194 -275 147 -290 q 312 -217 265 -254 q 386 -135 358 -181 q 425 -40 414 -90 q 436 61 436 11 z "},"k":{"ha":775,"x_min":54,"x_max":799,"o":"m 758 288 q 709 374 726 338 q 688 441 692 411 q 693 496 683 471 q 726 546 703 521 q 760 609 749 571 q 771 686 772 647 q 752 760 769 725 q 699 814 735 794 q 634 836 663 832 q 580 833 606 840 q 531 808 554 825 q 482 768 507 792 q 457 754 471 757 q 431 758 443 751 q 410 784 418 765 q 401 836 401 803 q 360 983 400 931 q 229 1033 319 1035 q 99 980 143 1031 q 54 842 54 929 l 54 186 q 101 47 54 94 q 235 1 147 -1 q 301 10 276 3 q 339 28 325 18 q 361 52 353 39 q 381 79 369 65 q 397 92 386 86 q 419 99 407 97 q 444 96 432 100 q 467 81 457 92 q 558 10 510 29 q 685 15 607 -8 q 756 59 729 29 q 790 127 782 89 q 790 208 799 165 q 758 288 782 250 z "},"l":{"ha":464,"x_min":31,"x_max":461,"o":"m 461 235 l 461 815 q 401 980 461 922 q 232 1033 342 1038 q 79 972 128 1028 q 31 815 31 917 l 31 229 q 43 120 31 164 q 82 49 56 76 q 150 11 108 22 q 251 1 192 0 q 350 15 310 3 q 415 53 390 26 q 451 124 440 81 q 461 235 461 168 z "},"m":{"ha":1229,"x_min":94,"x_max":1225,"o":"m 1224 182 q 1224 335 1224 253 q 1224 492 1225 417 q 1199 617 1224 560 q 1131 713 1175 674 q 1025 772 1088 753 q 885 786 963 792 q 834 780 854 783 q 798 773 814 776 q 767 767 782 769 q 735 764 753 764 q 686 769 706 764 q 646 779 667 774 q 599 788 625 785 q 529 786 572 790 q 478 778 496 782 q 449 770 461 774 q 426 764 438 767 q 392 760 414 761 q 344 763 364 758 q 294 771 324 768 q 217 762 253 775 q 153 723 181 749 q 110 663 126 697 q 94 593 94 629 l 94 176 q 142 43 94 82 q 275 1 190 4 q 360 12 329 -1 q 410 42 392 25 q 440 72 429 58 q 468 86 451 86 q 491 73 482 86 q 518 44 500 60 q 570 15 536 28 q 668 3 604 3 q 746 16 718 3 q 790 45 774 29 q 818 74 807 61 q 849 86 829 86 q 878 72 865 86 q 909 42 890 58 q 960 13 928 25 q 1049 3 992 0 q 1178 49 1133 8 q 1224 182 1224 89 z "},"n":{"ha":813,"x_min":94,"x_max":806,"o":"m 806 183 q 806 254 806 213 q 805 340 806 296 q 804 425 804 383 q 804 496 804 467 q 783 619 803 563 q 724 715 763 675 q 629 774 685 754 q 501 786 574 793 q 454 779 472 783 q 422 772 436 775 q 392 767 407 769 q 356 765 378 765 q 336 765 344 765 q 322 766 329 765 q 303 768 314 767 q 278 771 293 769 q 206 761 239 776 q 148 719 172 746 q 109 656 124 692 q 94 586 94 621 l 94 182 q 141 44 94 86 q 263 3 188 3 q 351 21 321 3 q 396 60 381 39 q 421 99 411 81 q 449 117 431 117 q 476 98 465 117 q 505 57 486 79 q 558 17 524 35 q 653 3 592 0 q 766 58 726 7 q 806 183 806 108 z "},"o":{"ha":826,"x_min":50,"x_max":854,"o":"m 853 388 q 833 551 853 478 q 766 677 813 625 q 642 758 719 729 q 449 786 565 786 q 252 757 329 786 q 131 676 175 728 q 68 549 86 624 q 50 386 50 475 q 68 219 50 293 q 131 92 86 144 q 254 10 176 39 q 451 -18 332 -18 q 642 11 565 -18 q 767 94 719 40 q 834 222 814 147 q 853 388 854 297 m 493 385 q 483 346 493 361 q 453 331 474 331 q 422 346 432 331 q 413 385 413 361 q 422 422 413 408 q 453 436 431 436 q 485 420 476 436 q 493 385 493 404 z "},"p":{"ha":840,"x_min":92,"x_max":856,"o":"m 854 358 q 827 542 854 461 q 753 679 800 624 q 642 763 706 735 q 504 788 579 790 q 461 784 479 786 q 427 779 443 782 q 395 774 411 776 q 357 771 379 772 q 332 771 343 771 q 311 771 322 771 q 289 771 301 771 q 261 771 278 771 q 199 756 229 771 q 144 715 168 742 q 106 649 121 688 q 92 561 92 610 l 92 -103 q 139 -251 92 -203 q 263 -300 186 -300 q 376 -264 340 -300 q 415 -154 413 -228 q 443 -96 417 -115 q 507 -76 469 -76 q 648 -45 583 -76 q 758 44 713 -14 q 830 181 804 101 q 854 358 856 261 m 504 351 q 494 315 504 329 q 465 300 485 300 q 434 315 443 300 q 425 351 425 331 q 433 391 425 376 q 465 406 442 406 q 496 390 488 406 q 504 351 504 374 z "},"q":{"ha":826,"x_min":51,"x_max":818,"o":"m 818 -101 l 818 564 q 803 654 818 615 q 763 719 788 693 q 706 757 738 744 q 640 769 674 769 q 613 769 624 769 q 592 769 601 769 q 572 769 582 769 q 550 769 563 769 q 517 773 532 771 q 488 777 503 775 q 455 781 474 779 q 410 785 436 783 q 252 754 319 789 q 140 658 185 719 q 74 517 96 597 q 51 353 51 438 q 74 193 51 271 q 142 55 97 115 q 251 -42 186 -6 q 399 -78 315 -78 q 454 -103 431 -78 q 478 -160 478 -128 q 528 -270 478 -237 q 657 -300 579 -303 q 774 -250 731 -296 q 818 -101 818 -204 m 479 349 q 469 312 479 326 q 438 297 458 297 q 408 313 417 297 q 399 349 399 328 q 407 388 399 374 q 438 403 415 403 q 470 387 461 403 q 479 349 479 371 z "},"r":{"ha":469,"x_min":29,"x_max":571,"o":"m 571 615 q 553 685 571 656 q 506 735 535 715 q 440 762 476 754 q 367 764 403 769 q 337 756 343 761 q 315 751 331 751 q 290 753 300 751 q 271 758 279 756 q 253 762 263 760 q 231 764 244 764 q 152 750 189 764 q 88 713 115 736 q 45 657 61 689 q 29 589 29 625 l 29 175 q 42 104 29 136 q 78 49 54 72 q 138 13 103 25 q 217 1 172 0 q 351 53 301 4 q 401 178 401 101 q 401 268 401 218 q 401 356 400 318 q 415 414 401 392 q 447 451 428 436 q 487 477 465 465 q 527 506 508 489 q 558 549 546 524 q 571 615 571 574 z "},"s":{"ha":726,"x_min":63,"x_max":731,"o":"m 731 283 q 721 342 731 318 q 699 381 711 365 q 675 407 686 396 q 663 431 664 418 q 671 467 660 444 q 690 518 682 489 q 697 582 699 547 q 668 657 694 617 q 545 758 619 729 q 382 788 471 788 q 250 766 308 788 q 151 706 192 744 q 88 614 110 668 q 65 494 65 560 q 74 442 65 463 q 92 408 82 422 q 110 382 101 394 q 118 353 118 369 q 104 317 118 336 q 78 272 90 297 q 65 214 67 247 q 86 138 63 181 q 215 18 131 56 q 400 -17 300 -19 q 533 4 472 -15 q 638 61 594 24 q 706 154 682 99 q 731 283 731 210 z "},"t":{"ha":468,"x_min":-37,"x_max":508,"o":"m 508 649 q 498 696 508 676 q 471 732 488 715 q 435 765 454 749 q 397 803 415 782 q 362 860 374 829 q 335 915 350 890 q 297 957 321 940 q 225 974 272 974 q 155 958 179 974 q 116 917 131 942 q 90 862 101 892 q 58 804 79 832 q 25 770 42 783 q -6 742 8 757 q -28 707 -19 728 q -37 651 -37 686 q -31 581 -37 606 q -12 540 -24 557 q 10 506 -1 522 q 33 458 22 489 q 51 375 44 426 q 58 238 58 324 q 76 122 58 168 q 127 47 93 75 q 212 6 161 18 q 329 -7 263 -7 q 399 1 367 -7 q 454 28 431 10 q 492 77 478 47 q 506 151 506 107 q 490 214 506 190 q 454 259 474 238 q 419 306 435 281 q 403 374 403 332 q 410 446 403 418 q 430 493 418 474 q 456 526 442 513 q 481 556 469 540 q 501 593 493 572 q 508 649 508 614 z "},"u":{"ha":813,"x_min":94,"x_max":806,"o":"m 806 192 q 806 267 806 218 q 806 369 806 315 q 806 481 806 425 q 806 581 806 538 q 763 712 806 660 q 640 764 719 764 q 563 742 592 764 q 515 696 533 721 q 481 649 496 671 q 446 628 467 628 q 410 649 422 628 q 380 697 397 671 q 335 743 363 722 q 253 764 307 764 q 136 722 178 764 q 94 581 94 681 l 94 281 q 117 145 94 204 q 179 47 139 86 q 275 -10 219 8 q 399 -21 331 -28 q 454 -13 435 -17 q 488 -6 474 -10 q 515 0 501 -3 q 553 6 528 3 q 585 4 572 8 q 614 -3 597 0 q 691 1 656 -10 q 752 37 726 11 q 792 102 778 63 q 806 192 806 142 z "},"v":{"ha":751,"x_min":56,"x_max":772,"o":"m 753 533 q 763 629 772 585 q 728 706 753 674 q 667 753 703 738 q 599 764 632 769 q 527 736 550 756 q 490 697 504 717 q 462 660 476 676 q 414 644 447 644 q 362 663 381 644 q 326 703 343 681 q 285 744 308 725 q 221 764 263 763 q 150 749 185 765 q 92 702 115 733 q 62 624 68 671 q 78 519 56 578 q 115 424 94 478 q 157 315 136 369 q 197 213 178 261 q 228 133 215 164 q 296 28 251 67 q 411 -10 340 -10 q 530 28 485 -10 q 599 133 575 67 q 635 230 614 174 q 679 343 657 286 q 722 451 701 400 q 753 533 742 501 z "},"w":{"ha":1071,"x_min":40,"x_max":1108,"o":"m 1096 553 q 1103 631 1108 592 q 1076 702 1097 671 q 1017 751 1054 733 q 928 765 979 769 q 883 751 901 763 q 846 725 864 739 q 808 699 828 711 q 763 686 789 688 q 716 697 733 685 q 681 725 699 710 q 640 753 664 740 q 575 765 617 765 q 522 752 544 765 q 481 724 500 739 q 440 697 461 708 q 389 686 418 685 q 346 700 361 688 q 315 726 331 713 q 281 752 300 740 q 226 765 261 764 q 136 749 174 768 q 76 699 99 731 q 47 629 53 668 q 53 553 40 590 q 84 452 67 507 q 120 343 101 397 q 156 238 139 289 q 188 149 174 188 q 259 41 213 81 q 389 1 306 1 q 439 13 418 1 q 480 37 460 24 q 522 61 500 50 q 572 72 543 72 q 621 61 603 72 q 658 36 639 50 q 701 11 676 22 q 768 3 726 0 q 892 46 849 6 q 960 151 936 86 q 991 240 974 190 q 1027 344 1008 290 q 1063 453 1046 399 q 1096 553 1081 507 z "},"x":{"ha":769,"x_min":26,"x_max":797,"o":"m 756 257 q 713 311 728 290 q 690 347 697 332 q 681 371 683 361 q 679 392 679 381 q 680 410 679 401 q 688 431 681 418 q 708 463 694 443 q 750 514 722 482 q 778 574 771 539 q 776 644 785 610 q 742 709 767 679 q 676 754 718 739 q 608 760 639 768 q 547 738 578 753 q 485 710 517 724 q 414 696 453 696 q 348 711 375 696 q 294 742 321 726 q 234 765 267 757 q 150 756 201 772 q 81 716 108 743 q 42 656 54 689 q 36 588 31 624 q 67 521 42 551 q 110 465 94 486 q 134 432 126 444 q 144 410 142 419 q 146 392 146 401 q 145 369 146 379 q 137 347 144 360 q 114 312 129 333 q 69 256 99 290 q 35 190 44 225 q 34 120 26 154 q 66 57 42 86 q 132 11 90 28 q 202 2 169 -4 q 267 23 235 8 q 333 52 299 38 q 408 67 368 67 q 483 52 450 67 q 547 24 515 38 q 611 2 578 10 q 686 10 644 -6 q 753 53 728 24 q 788 117 779 82 q 790 188 797 151 q 756 257 782 225 z "},"y":{"ha":769,"x_min":-85,"x_max":896,"o":"m 879 522 q 889 601 896 560 q 856 677 882 642 q 789 736 831 713 q 697 763 747 760 q 618 758 651 765 q 559 735 585 751 q 514 692 533 718 q 478 628 494 665 q 454 596 469 610 q 421 578 439 582 q 383 585 403 575 q 349 626 364 594 q 311 689 331 663 q 267 732 292 715 q 211 757 243 749 q 135 765 179 765 q 36 743 81 765 q -37 686 -8 721 q -76 609 -67 651 q -67 528 -85 567 q -17 422 -43 478 q 33 316 8 367 q 79 222 58 265 q 113 150 100 178 q 134 65 136 103 q 107 8 132 28 q 74 -12 92 -3 q 41 -37 57 -22 q 13 -76 25 -53 q 0 -136 1 -99 q 56 -260 -3 -212 q 243 -307 115 -307 q 381 -292 326 -307 q 472 -249 435 -278 q 538 -175 510 -219 q 594 -71 565 -131 q 657 57 622 -15 q 730 208 692 129 q 806 367 768 286 q 879 522 844 449 z "},"z":{"ha":699,"x_min":19,"x_max":713,"o":"m 710 163 q 679 246 706 213 q 614 294 653 279 q 588 307 603 299 q 563 331 572 315 q 555 367 553 346 q 582 419 557 389 q 615 460 599 439 q 647 501 632 481 q 674 542 663 522 q 692 576 686 561 q 696 643 704 610 q 666 704 688 676 q 612 749 644 732 q 544 767 579 767 l 203 767 q 94 731 136 767 q 50 622 53 694 q 67 528 47 567 q 142 476 88 490 q 163 466 150 474 q 182 442 176 458 q 180 400 188 426 q 138 336 172 374 q 107 301 124 321 q 75 261 90 281 q 47 223 60 242 q 31 190 35 204 q 30 121 19 154 q 65 61 40 88 q 125 19 90 35 q 196 1 160 3 q 372 0 281 -1 q 538 1 464 1 q 607 13 575 1 q 663 46 639 25 q 700 96 688 67 q 710 163 713 125 z "},"A":{"ha":1018,"x_min":19,"x_max":1044,"o":"m 1028 264 q 969 413 1000 335 q 908 568 939 490 q 849 721 878 646 q 794 863 819 796 q 697 989 763 944 q 535 1033 631 1033 q 376 989 442 1033 q 279 868 311 944 q 228 740 256 811 q 168 590 200 669 q 102 424 136 510 q 35 254 68 339 q 23 171 19 215 q 49 88 26 126 q 110 26 71 50 q 207 1 150 1 q 270 11 243 1 q 319 39 297 21 q 363 83 342 57 q 407 144 383 110 q 451 179 422 167 q 536 192 479 192 q 611 183 583 192 q 653 150 639 174 q 692 92 668 121 q 747 41 717 63 q 815 8 778 19 q 893 3 851 -4 q 975 35 942 10 q 1025 97 1008 61 q 1043 177 1042 133 q 1028 264 1044 221 z "},"B":{"ha":1018,"x_min":111,"x_max":992,"o":"m 992 356 q 985 424 992 399 q 969 469 978 450 q 952 508 960 489 q 944 556 944 526 q 947 594 943 579 q 954 624 950 608 q 962 659 958 639 q 965 714 965 679 q 946 838 965 781 q 883 939 926 896 q 770 1007 840 982 q 600 1033 700 1032 q 453 1032 521 1033 q 318 1033 385 1031 q 246 1016 282 1033 q 180 970 210 999 q 131 906 150 942 q 113 835 113 871 q 112 533 111 681 q 113 224 113 385 q 129 144 113 183 q 174 74 146 106 q 238 23 201 43 q 311 1 274 3 q 451 1 386 0 q 586 1 517 3 q 756 24 681 0 q 883 93 831 47 q 964 206 936 139 q 992 356 992 272 m 593 360 q 576 326 593 336 q 532 315 558 315 q 490 324 506 315 q 475 360 474 333 q 493 394 476 388 q 538 401 510 401 q 576 392 560 401 q 593 360 593 382 z "},"C":{"ha":992,"x_min":63,"x_max":993,"o":"m 967 804 q 899 907 942 860 q 801 988 857 954 q 681 1042 746 1022 q 544 1061 615 1061 q 331 1017 421 1061 q 181 897 240 972 q 92 724 121 822 q 63 518 63 625 q 90 313 63 411 q 174 140 117 215 q 322 20 232 65 q 539 -25 413 -25 q 790 36 681 -26 q 958 233 900 99 q 974 335 982 289 q 945 419 965 382 q 904 483 925 456 q 883 528 883 510 q 906 567 883 544 q 951 624 929 590 q 983 701 974 657 q 967 804 993 746 m 696 542 q 690 510 697 522 q 669 485 683 499 q 638 449 656 471 q 601 389 621 428 q 578 362 594 372 q 546 354 561 351 q 503 374 519 358 q 478 413 488 390 q 466 460 469 435 q 463 510 463 486 q 463 565 461 536 q 474 619 465 594 q 499 662 482 644 q 546 682 517 679 q 572 681 557 685 q 593 665 588 676 q 623 624 606 640 q 656 595 640 608 q 682 570 671 582 q 696 542 693 558 z "},"D":{"ha":1018,"x_min":111,"x_max":1017,"o":"m 1015 535 q 986 742 1017 650 q 899 899 956 835 q 764 999 843 964 q 589 1033 685 1033 l 357 1033 q 265 1017 308 1033 q 188 970 221 1000 q 134 899 154 940 q 113 811 114 858 q 112 676 113 750 q 111 525 111 603 q 112 373 111 449 q 113 233 113 297 q 134 140 114 183 q 188 66 154 97 q 267 17 222 35 q 363 1 313 0 q 474 1 417 3 q 589 1 532 0 q 765 44 686 3 q 899 158 843 86 q 984 326 954 229 q 1015 535 1014 422 m 672 536 q 664 454 672 494 q 638 382 656 414 q 594 331 621 350 q 532 311 568 311 q 485 318 501 311 q 463 349 469 325 q 455 420 456 374 q 454 544 454 467 q 456 635 454 601 q 467 688 458 669 q 492 711 475 706 q 538 717 508 717 q 598 701 572 717 q 640 658 624 685 q 665 600 657 632 q 672 536 672 568 z "}}}
